Coordinates
version=1
nRows=17
nColumns=40
inDegrees=yes

Units are S.I. units (second, meters, Newtons, ...)
Angles are in degrees.

endheader
time	pelvis_tilt	pelvis_list	pelvis_rotation	pelvis_tx	pelvis_ty	pelvis_tz	hip_flexion_r	hip_adduction_r	hip_rotation_r	knee_angle_r	knee_angle_r_beta	ankle_angle_r	subtalar_angle_r	mtp_angle_r	hip_flexion_l	hip_adduction_l	hip_rotation_l	knee_angle_l	knee_angle_l_beta	ankle_angle_l	subtalar_angle_l	mtp_angle_l	lumbar_extension	lumbar_bending	lumbar_rotation	arm_flex_r	arm_add_r	arm_rot_r	elbow_flex_r	pro_sup_r	wrist_flex_r	wrist_dev_r	arm_flex_l	arm_add_l	arm_rot_l	elbow_flex_l	pro_sup_l	wrist_flex_l	wrist_dev_l
     31.70214286	     -2.38628752	     -3.58860269	      2.32204787	      0.98089923	      0.91678223	      0.59917619	     13.13933574	      5.50605715	    -11.44335254	     27.59122884	     27.59122884	     17.98177119	    -12.88483167	      0.79416722	     31.39751358	    -10.27635207	      1.91243316	     46.38187939	     46.38187939	     16.83631944	    -19.41011133	     21.02991649	    -12.16829450	      4.47669961	     -0.12275944	     25.54946731	    -14.68687478	    -11.48570720	     56.82869646	     45.37694553	      0.00000000	      0.00000000	      7.81119479	     -6.71939059	     -4.50005942	     27.08477030	     46.39639410	      0.00000000	      0.00000000
     31.72178571	     -2.46763183	     -3.50395020	      2.86075699	      0.97822903	      0.91650914	      0.59956671	     13.05358106	      5.38865310	    -11.83230691	     27.68875926	     27.68875926	     18.19425679	    -12.97097961	      0.90518462	     32.12686046	     -9.78994752	      2.35271880	     43.99631049	     43.99631049	     15.99008147	    -19.31875099	     20.35086109	    -12.17905164	      4.23763942	     -0.14509394	     28.31799096	    -14.48860883	    -10.96310820	     60.19545079	     45.25479762	      0.00000000	      0.00000000	      5.71808010	     -6.61913459	     -4.31373859	     25.30818066	     46.32890839	      0.00000000	      0.00000000
     31.74142857	     -2.68173982	     -3.49557618	      3.30464935	      0.97564593	      0.91647052	      0.59977773	     12.99316284	      5.36013616	    -12.17085163	     27.55911400	     27.55911400	     18.26081186	    -12.99013501	      0.94640423	     32.87954449	     -9.37959629	      2.89206904	     41.65654258	     41.65654258	     15.28142291	    -19.13198949	     20.40455139	    -11.92610887	      4.07520322	      0.69452430	     31.11855169	    -15.05058916	    -10.97105142	     62.00124855	     45.20769281	      0.00000000	      0.00000000	      3.84879826	     -6.38651161	     -4.26758222	     24.43509209	     46.28622243	      0.00000000	      0.00000000
     31.76107143	     -2.74654697	     -3.37155005	      3.73739929	      0.97342509	      0.91697300	      0.59976001	     12.62171930	      5.13712453	    -12.77313275	     27.27790035	     27.27790035	     18.48648406	    -12.39619991	      1.15587170	     33.08262999	     -8.95740751	      3.24720915	     38.91653766	     38.91653766	     13.20391061	    -18.96654240	     16.64938589	    -12.02256686	      3.88343619	      0.80135842	     32.67224121	    -15.48254993	     -8.81919338	     69.05005579	     44.91825102	      0.00000000	      0.00000000	      1.69069011	     -6.55533418	     -3.63159400	     23.44892522	     46.11339493	      0.00000000	      0.00000000
     31.78071429	     -2.89630256	     -3.32198738	      4.07986950	      0.97130450	      0.91771501	      0.59958089	     12.23460341	      5.03448938	    -13.23991984	     26.77069821	     26.77069821	     18.48757254	    -11.91607324	      1.16045342	     33.30650473	     -8.61476713	      3.72334503	     36.38722264	     36.38722264	     11.88088966	    -18.65522583	     14.97816891	    -11.89655875	      3.73903740	      1.12867384	     35.25958865	    -15.49874830	     -8.49051761	     72.51166249	     44.83508371	      0.00000000	      0.00000000	     -0.54219123	     -6.74756455	     -2.81045692	     23.20198585	     45.89518524	      0.00000000	      0.00000000
     31.80035714	     -3.02618021	     -3.25991878	      4.36529644	      0.96940164	      0.91872416	      0.59918394	     11.68640572	      4.93669588	    -13.69878664	     26.03097554	     26.03097554	     18.40416272	    -11.31945266	      1.02391904	     33.33225489	     -8.32818643	      4.10381078	     33.89749291	     33.89749291	     10.53893034	    -18.19332266	     13.17052655	    -11.76703797	      3.61496930	      1.47307966	     37.85089320	    -15.73154355	     -7.75731454	     75.70690201	     44.76289676	      0.00000000	      0.00000000	     -2.93324455	     -7.03556004	     -1.63157218	     23.76139878	     45.60602530	      0.00000000	      0.00000000
     31.82000000	     -3.14739854	     -3.21337480	      4.61357594	      0.96769775	      0.91989798	      0.59857327	     11.04564380	      4.87328819	    -14.10981683	     25.15918371	     25.15918371	     18.31860199	    -10.67899315	      1.05988128	     33.27884596	     -8.09423504	      4.46689553	     31.67651805	     31.67651805	      9.99746591	    -17.38066755	     13.09375576	    -11.58193555	      3.50121261	      1.69266550	     40.64457393	    -15.50534130	     -7.51683792	     77.92840973	     44.70276745	      0.00000000	      0.00000000	     -4.90029651	     -7.17535210	     -1.39400115	     23.37662603	     45.52280971	      0.00000000	      0.00000000
     31.83964286	     -3.24170594	     -3.21211477	      4.84335388	      0.96623516	      0.92103499	      0.59772709	     10.31098610	      4.84009919	    -14.62954866	     24.20244803	     24.20244803	     18.24611000	     -9.82339490	      1.00738236	     33.09866378	     -7.98936085	      4.62244977	     29.61912657	     29.61912657	      9.46679593	    -16.28384937	     12.63283954	    -11.41613104	      3.46273899	      1.89790804	     43.23679341	    -15.42189594	     -6.92005356	     80.38057155	     44.62440798	      0.00000000	      0.00000000	     -6.90920312	     -7.33179611	     -1.16173217	     23.49551203	     45.43331471	      0.00000000	      0.00000000
     31.85928571	     -3.40053784	     -3.32111936	      5.08875004	      0.96490659	      0.92173215	      0.59658828	      9.66259503	      4.86286836	    -15.35423718	     23.29842047	     23.29842047	     18.17239375	     -8.73964446	      0.62126816	     32.97335639	     -8.03317745	      4.59568027	     27.80363740	     27.80363740	      8.58471641	    -15.08114645	     10.89498712	    -11.18300440	      3.58476322	      2.11489929	     45.54385642	    -15.81523512	     -5.45616525	     83.36876100	     44.51874749	      0.00000000	      0.00000000	     -9.27376080	     -7.59633764	     -0.49547345	     25.12087838	     45.24658038	      0.00000000	      0.00000000
     31.87892857	     -3.42780414	     -3.39232989	      5.27145070	      0.96390003	      0.92246718	      0.59532922	      8.82218864	      4.94865174	    -15.72037850	     22.30939444	     22.30939444	     18.00071820	     -8.08850841	      0.11786676	     32.48757454	     -8.08644445	      4.38263717	     25.98613905	     25.98613905	      7.54634827	    -13.99137003	      8.81556374	    -11.01995778	      3.61046983	      2.36372200	     47.85559946	    -16.10519663	     -4.39334394	     85.18775728	     44.50256734	      0.00000000	      0.00000000	    -11.59445433	     -8.08493952	      1.39969517	     27.11143335	     44.89522927	      0.00000000	      0.00000000
     31.89857143	     -3.72237667	     -3.51224372	      5.47216135	      0.96280762	      0.92235586	      0.59380157	      8.51553231	      5.02924839	    -15.94109420	     21.77305338	     21.77305338	     18.05686931	     -7.87166494	      0.15778563	     32.48794943	     -8.04558201	      4.41627111	     24.85944053	     24.85944053	      7.31995514	    -13.17813203	      8.99836351	    -10.41259880	      3.63463716	      2.88354219	     49.98427212	    -16.36623739	     -4.55205545	     86.04738840	     44.49126970	      0.00000000	      0.00000000	    -12.80710513	     -8.21989389	      1.44360014	     26.73065547	     44.87010061	      0.00000000	      0.00000000
     31.91821429	     -3.46986190	     -3.72729477	      5.78377181	      0.96233166	      0.92303721	      0.59203048	      7.13769112	      5.28136899	    -16.71713841	     20.41113152	     20.41113152	     18.08129156	     -6.50050331	     -0.05244425	     31.70992884	     -8.29849869	      3.77338330	     23.65290969	     23.65290969	      7.07052228	    -11.25705516	      8.30377471	    -10.57077854	      3.91618354	      2.65125766	     51.94646943	    -16.03723999	     -3.35189091	     88.25547984	     44.41496331	      0.00000000	      0.00000000	    -14.30309861	     -8.27505601	      2.09462723	     27.46731940	     44.75427614	      0.00000000	      0.00000000
     31.93785714	     -3.43175771	     -3.91417446	      6.03710744	      0.96180835	      0.92290435	      0.59007320	      6.25442305	      5.48783778	    -17.09305766	     19.52977127	     19.52977127	     18.20841350	     -5.90642264	     -0.20104581	     31.18176617	     -8.39758164	      3.40538913	     22.76636973	     22.76636973	      6.64863495	    -10.15631241	      7.88916291	    -10.42212752	      4.04595844	      2.77052156	     53.63430529	    -16.10756198	     -2.80196639	     89.49123521	     44.38381798	      0.00000000	      0.00000000	    -15.45033693	     -8.37862242	      2.53073234	     27.97923161	     44.68035996	      0.00000000	      0.00000000
     31.95750000	     -3.51802107	     -4.13273300	      6.30455842	      0.96122656	      0.92214968	      0.58788927	      5.71341447	      5.67606540	    -17.34553328	     19.03801544	     19.03801544	     18.42056707	     -5.63997569	     -0.28743299	     30.86202557	     -8.43903236	      3.18783258	     22.20024328	     22.20024328	      6.24706161	     -9.46588581	      7.81974768	    -10.08598326	      4.21295041	      2.97302670	     55.15295759	    -16.18517086	     -2.66930258	     90.27908209	     44.36726169	      0.00000000	      0.00000000	    -16.11369726	     -8.37878381	      2.68005961	     28.10730649	     44.65151091	      0.00000000	      0.00000000
     31.97714286	     -3.36304996	     -4.40765469	      6.57931899	      0.96110311	      0.92153270	      0.58559991	      4.70274596	      5.98401325	    -17.75154644	     18.18550045	     18.18550045	     18.61955340	     -4.95214753	     -0.48936290	     30.32024467	     -8.63730917	      2.72319597	     21.89186855	     21.89186855	      5.79093679	     -8.44901823	      7.02323995	    -10.01207752	      4.40354883	      2.89146317	     56.31574980	    -16.19298024	     -2.00616799	     91.50200675	     44.32942877	      0.00000000	      0.00000000	    -16.99311623	     -8.47149559	      3.04405617	     28.83765268	     44.59445075	      0.00000000	      0.00000000
     31.99678571	     -3.31042780	     -4.66779563	      6.84266600	      0.96096384	      0.92048311	      0.58314964	      3.94139793	      6.24325319	    -18.03754194	     17.60074313	     17.60074313	     18.84805940	     -4.55960975	     -0.79657237	     29.94648945	     -8.75991833	      2.41510246	     21.79038303	     21.79038303	      5.07964445	     -7.83617471	      5.79156230	     -9.83511759	      4.56696263	      2.90335681	     57.27093901	    -16.39602972	     -1.49055164	     92.50825389	     44.31285238	      0.00000000	      0.00000000	    -17.72316132	     -8.65269373	      3.59362530	     29.99922167	     44.52549351	      0.00000000	      0.00000000
     32.01642857	     -3.38562854	     -4.84039495	      7.09057899	      0.96067640	      0.91916596	      0.58051155	      3.53249517	      6.34450865	    -18.12204984	     17.42975668	     17.42975668	     19.20764403	     -4.59036178	     -0.91006965	     29.78515932	     -8.69502738	      2.41223111	     21.93544048	     21.93544048	      4.65865554	     -7.75295316	      5.68920034	     -9.52726037	      4.61154385	      2.98249018	     58.14207541	    -16.47084377	     -1.56280159	     92.85424258	     44.31252899	      0.00000000	      0.00000000	    -17.80722633	     -8.68911174	      3.68617520	     30.17628198	     44.51592501	      0.00000000	      0.00000000
